<?xml version="1.0" encoding="utf-8"?>
<!-- Generator: Adobe Illustrator 25.3.1, SVG Export Plug-In . SVG Version: 6.00 Build 0)  -->
<svg version="1.1" id="Capa_1" xmlns="http://www.w3.org/2000/svg" xmlns:xlink="http://www.w3.org/1999/xlink" x="0px" y="0px"
	 viewBox="0 0 764 248" style="enable-background:new 0 0 764 248;" xml:space="preserve">
<style type="text/css">
	.st0{fill:none;stroke:#000000;stroke-width:30;stroke-miterlimit:10;}
	.st1{fill:none;stroke:#000000;stroke-width:18;stroke-linecap:round;stroke-miterlimit:10;}
</style>
<rect x="72.1" y="17.5" class="st0" width="206.2" height="212.5"/>
<rect x="277.1" y="17.5" class="st0" width="206.2" height="212.5"/>
<rect x="483.2" y="17.5" class="st0" width="206.2" height="212.5"/>
<g>
	<g>
		<g>
			<path d="M406.5,131.8c-2.5-2.3-6.4-2.3-8.8,0l-14.5,14.5l-27-27c-2.5-2.3-6.4-2.3-8.8,0l-43.8,43.8c-2.3,2.5-2.3,6.4,0.2,8.9
				c1.2,1.2,2.7,1.6,4.4,1.8h125.4c3.6,0,6.2-2.7,6.2-6.2c0-1.6-0.7-3.4-1.8-4.5L406.5,131.8z"/>
			<circle cx="389.5" cy="92.4" r="18.9"/>
		</g>
	</g>
</g>
<g>
	<g>
		<g>
			<path d="M621.8,131.8c-2.5-2.3-6.4-2.3-8.8,0l-14.5,14.5l-27-27c-2.5-2.3-6.4-2.3-8.8,0l-43.8,43.8c-2.3,2.5-2.3,6.4,0.2,8.9
				c1.2,1.2,2.7,1.6,4.4,1.8h125.4c3.6,0,6.2-2.7,6.2-6.2c0-1.6-0.7-3.4-1.8-4.5L621.8,131.8z"/>
			<circle cx="604.8" cy="92.4" r="18.9"/>
		</g>
	</g>
</g>
<g>
	<g>
		<g>
			<path d="M209.7,131.8c-2.5-2.3-6.4-2.3-8.8,0l-14.5,14.5l-27-27c-2.5-2.3-6.4-2.3-8.8,0l-43.8,43.8c-2.3,2.5-2.3,6.4,0.2,8.9
				c1.2,1.2,2.7,1.6,4.4,1.8h125.4c3.6,0,6.2-2.7,6.2-6.2c0-1.6-0.7-3.4-1.8-4.5L209.7,131.8z"/>
			<circle cx="192.7" cy="92.4" r="18.9"/>
		</g>
	</g>
</g>
<polyline class="st1" points="40.9,98.2 15.1,121.3 40.9,140 "/>
<polyline class="st1" points="724.1,98.2 749.9,121.3 724.1,140 "/>
</svg>
