<?xml version="1.0" encoding="utf-8"?>
<!-- Generator: Adobe Illustrator 25.3.1, SVG Export Plug-In . SVG Version: 6.00 Build 0)  -->
<svg version="1.1" id="Capa_1" xmlns="http://www.w3.org/2000/svg" xmlns:xlink="http://www.w3.org/1999/xlink" x="0px" y="0px"
	 viewBox="0 0 766 417.6" style="enable-background:new 0 0 766 417.6;" xml:space="preserve">
<style type="text/css">
	.st0{fill:none;stroke:#000000;stroke-width:30;stroke-miterlimit:10;}
	.st1{fill:none;stroke:#000000;stroke-width:18;stroke-linecap:round;stroke-miterlimit:10;}
</style>
<rect x="72.1" y="14.9" class="st0" width="206.2" height="212.5"/>
<rect x="277.1" y="14.9" class="st0" width="206.2" height="212.5"/>
<rect x="483.2" y="14.9" class="st0" width="206.2" height="212.5"/>
<g>
	<g>
		<g>
			<path d="M406.5,129.2c-2.5-2.3-6.4-2.3-8.8,0l-14.5,14.5l-27-27c-2.5-2.3-6.4-2.3-8.8,0l-43.8,43.8c-2.3,2.5-2.3,6.4,0.2,8.9
				c1.2,1.2,2.7,1.6,4.4,1.8h125.4c3.6,0,6.2-2.7,6.2-6.2c0-1.6-0.7-3.4-1.8-4.5L406.5,129.2z"/>
			<circle cx="389.5" cy="89.8" r="18.9"/>
		</g>
	</g>
</g>
<g>
	<g>
		<g>
			<path d="M621.8,129.2c-2.5-2.3-6.4-2.3-8.8,0l-14.5,14.5l-27-27c-2.5-2.3-6.4-2.3-8.8,0l-43.8,43.8c-2.3,2.5-2.3,6.4,0.2,8.9
				c1.2,1.2,2.7,1.6,4.4,1.8h125.4c3.6,0,6.2-2.7,6.2-6.2c0-1.6-0.7-3.4-1.8-4.5L621.8,129.2z"/>
			<circle cx="604.8" cy="89.8" r="18.9"/>
		</g>
	</g>
</g>
<g>
	<g>
		<g>
			<path d="M209.7,129.2c-2.5-2.3-6.4-2.3-8.8,0l-14.5,14.5l-27-27c-2.5-2.3-6.4-2.3-8.8,0l-43.8,43.8c-2.3,2.5-2.3,6.4,0.2,8.9
				c1.2,1.2,2.7,1.6,4.4,1.8h125.4c3.6,0,6.2-2.7,6.2-6.2c0-1.6-0.7-3.4-1.8-4.5L209.7,129.2z"/>
			<circle cx="192.7" cy="89.8" r="18.9"/>
		</g>
	</g>
</g>
<rect x="88.2" y="290.4" width="171.1" height="27"/>
<rect x="88.2" y="340.5" width="171.1" height="27"/>
<rect x="131" y="390.6" width="85.6" height="27"/>
<rect x="303.9" y="290.4" width="171.1" height="27"/>
<rect x="303.9" y="340.5" width="171.1" height="27"/>
<rect x="346.7" y="390.6" width="85.6" height="27"/>
<rect x="500.4" y="290.4" width="171.1" height="27"/>
<rect x="500.4" y="340.5" width="171.1" height="27"/>
<rect x="543.2" y="390.6" width="85.6" height="27"/>
<polyline class="st1" points="40.9,159.2 15.1,182.3 40.9,201 "/>
<polyline class="st1" points="724.1,159.2 749.9,182.3 724.1,201 "/>
</svg>
