<?xml version="1.0" encoding="utf-8"?>
<!-- Generator: Adobe Illustrator 25.3.1, SVG Export Plug-In . SVG Version: 6.00 Build 0)  -->
<svg version="1.1" id="Layer_1" xmlns="http://www.w3.org/2000/svg" xmlns:xlink="http://www.w3.org/1999/xlink" x="0px" y="0px"
	 viewBox="0 0 186 186" style="enable-background:new 0 0 186 186;" xml:space="preserve">
<circle cx="92.7" cy="93.4" r="18.3"/>
<path d="M110.9,144.5c-3.7,0-7.3-1.8-8.2-5.5c-1.8-4.6,0-10,4.6-11.9l0,0c18.3-8.2,26.5-29.2,19.2-48.4S97.3,52.3,78.1,59.6
	C58.9,66.9,51.6,88.8,58.9,108c3.7,8.2,10,15.5,19.2,19.2c4.6,1.8,7.3,7.3,5.5,11.9c-1.8,4.6-7.3,7.3-11.9,5.5h-0.9
	c-27.4-11.9-40.2-44.7-28.3-72.1s44.7-40.2,72.1-28.3s40.2,44.7,28.3,72.1c-5.5,12.8-15.5,22.8-28.3,28.3
	C113.7,143.6,111.9,144.5,110.9,144.5z"/>
<path d="M110.9,182.9c-5.5,0.9-9.1-2.7-10-8.2c-0.9-5.5,2.7-9.1,8.2-10c39.3-9.1,63.9-48.4,54.8-87.7S115.5,13,76.3,22.2
	s-63.9,48.4-54.8,87.7c6.4,27.4,27.4,48.4,54.8,54.8c4.6,0.9,8.2,5.5,7.3,11c0,0,0,0,0,0.9c-0.9,4.6-6.4,8.2-11,7.3l0,0
	c-49.3-11-80.4-60.3-69.4-109.6S63.5-6.2,112.8,4.8c42,9.1,71.2,46.6,71.2,89.5s-29.2,79.4-71.2,88.6
	C111.9,182.9,111.9,182.9,110.9,182.9z"/>
</svg>
