<?xml version="1.0" encoding="utf-8"?>
<!-- Generator: Adobe Illustrator 25.3.1, SVG Export Plug-In . SVG Version: 6.00 Build 0)  -->
<svg version="1.1" id="Layer_1" xmlns="http://www.w3.org/2000/svg" xmlns:xlink="http://www.w3.org/1999/xlink" x="0px" y="0px"
	 viewBox="0 0 304.1 223" style="enable-background:new 0 0 304.1 223;" xml:space="preserve">
<rect x="11.5" y="121.6" width="278.4" height="19.7"/>
<rect x="11.5" y="162.6" width="278.4" height="19.7"/>
<rect x="11.5" y="203.6" width="278.4" height="19.7"/>
<g>
	<path d="M290.2,13l0.7,65.2H12.9L12.1,13H290.2 M303.1,0H-1l1,91.2h304.1L303.1,0L303.1,0z"/>
</g>
<g>
	<g>
		<g>
			<path d="M182,20.6h-53.6c-2.6,0-4.7,2.1-4.7,4.7v40.6c0,2.6,2.1,4.7,4.7,4.7H182c2.6,0,4.7-2.1,4.7-4.7V25.3
				C186.6,22.7,184.5,20.6,182,20.6z M183.5,65.9c0,0.9-0.7,1.6-1.6,1.6h-53.6c-0.9,0-1.6-0.7-1.6-1.6V25.3c0-0.9,0.7-1.6,1.6-1.6
				H182c0.9,0,1.6,0.7,1.6,1.6V65.9z"/>
			<path d="M164.6,47.6c-0.6-0.6-1.6-0.6-2.2,0l-3.6,3.6l-6.7-6.7c-0.6-0.6-1.6-0.6-2.2,0l-10.9,10.9c-0.6,0.6-0.6,1.6,0,2.2
				c0.3,0.3,0.7,0.4,1.1,0.4h31.2c0.9,0,1.6-0.7,1.6-1.6c0-0.4-0.2-0.8-0.5-1.1L164.6,47.6z"/>
			<circle cx="160.3" cy="37.8" r="4.7"/>
		</g>
	</g>
</g>
</svg>
