<?xml version="1.0" encoding="utf-8"?>
<!-- Generator: Adobe Illustrator 25.3.1, SVG Export Plug-In . SVG Version: 6.00 Build 0)  -->
<svg version="1.1" id="Capa_1" xmlns="http://www.w3.org/2000/svg" xmlns:xlink="http://www.w3.org/1999/xlink" x="0px" y="0px"
	 viewBox="0 0 981.7 277" style="enable-background:new 0 0 981.7 277;" xml:space="preserve">
<style type="text/css">
	.st0{fill:none;stroke:#000000;stroke-width:30;stroke-miterlimit:10;}
</style>
<rect x="14.9" y="15.3" class="st0" width="237.7" height="245"/>
<rect x="251.3" y="15.3" class="st0" width="237.7" height="245"/>
<rect x="488.9" y="15.3" class="st0" width="237.7" height="245"/>
<g>
	<g>
		<g>
			<path d="M400.5,147.1c-2.9-2.7-7.4-2.7-10.1,0l-16.7,16.7l-31.1-31.1c-2.9-2.7-7.4-2.7-10.1,0L282,183.2
				c-2.7,2.9-2.7,7.4,0.2,10.3c1.4,1.4,3.1,1.9,5.1,2.1h144.6c4.1,0,7.2-3.1,7.2-7.2c0-1.9-0.8-3.9-2.1-5.2L400.5,147.1z"/>
			<circle cx="380.9" cy="101.7" r="21.8"/>
		</g>
	</g>
</g>
<g>
	<g>
		<g>
			<path d="M648.8,147.1c-2.9-2.7-7.4-2.7-10.1,0L622,163.8l-31.1-31.1c-2.9-2.7-7.4-2.7-10.1,0l-50.5,50.5
				c-2.7,2.9-2.7,7.4,0.2,10.3c1.4,1.4,3.1,1.9,5.1,2.1h144.6c4.1,0,7.2-3.1,7.2-7.2c0-1.9-0.8-3.9-2.1-5.2L648.8,147.1z"/>
			<circle cx="629.2" cy="101.7" r="21.8"/>
		</g>
	</g>
</g>
<rect x="726.6" y="15.3" class="st0" width="237.7" height="245"/>
<g>
	<g>
		<g>
			<path d="M886.5,147.1c-2.9-2.7-7.4-2.7-10.1,0l-16.7,16.7l-31.1-31.1c-2.9-2.7-7.4-2.7-10.1,0L768,183.2
				c-2.7,2.9-2.7,7.4,0.2,10.3c1.4,1.4,3.1,1.9,5.1,2.1h144.6c4.1,0,7.2-3.1,7.2-7.2c0-1.9-0.8-3.9-2.1-5.2L886.5,147.1z"/>
			<circle cx="866.9" cy="101.7" r="21.8"/>
		</g>
	</g>
</g>
<g>
	<g>
		<g>
			<path d="M173.6,147.1c-2.9-2.7-7.4-2.7-10.1,0l-16.7,16.7l-31.1-31.1c-2.9-2.7-7.4-2.7-10.1,0l-50.5,50.5
				c-2.7,2.9-2.7,7.4,0.2,10.3c1.4,1.4,3.1,1.9,5.1,2.1H205c4.1,0,7.2-3.1,7.2-7.2c0-1.9-0.8-3.9-2.1-5.2L173.6,147.1z"/>
			<circle cx="154" cy="101.7" r="21.8"/>
		</g>
	</g>
</g>
</svg>
