<svg xmlns="http://www.w3.org/2000/svg" width="45" height="20" viewBox="0 0 45 20">
  <defs>
    <style>
      .cls-1 {
        fill: none;
        stroke: #000;
        stroke-width: 2px;
        fill-rule: evenodd;
      }
    </style>
  </defs>
  <rect id="Rectangle_3_copy_13" data-name="Rectangle 3 copy 13" x="35" y="8" width="2" height="2"/>
  <rect id="Rectangle_3_copy_13-2" data-name="Rectangle 3 copy 13" x="5" y="8" width="8" height="2"/>
  <rect id="Rectangle_3_copy_13-3" data-name="Rectangle 3 copy 13" x="17" y="3" width="13" height="1"/>
  <rect id="Rectangle_3_copy_13-4" data-name="Rectangle 3 copy 13" x="5" y="15" width="3" height="2"/>
  <rect id="Rectangle_3_copy_13-5" data-name="Rectangle 3 copy 13" x="9" y="15" width="3" height="2"/>
  <rect id="Rectangle_3_copy_13-6" data-name="Rectangle 3 copy 13" x="13" y="15" width="3" height="2"/>
  <rect id="Rectangle_3_copy_13-7" data-name="Rectangle 3 copy 13" x="17" y="15" width="3" height="2"/>
  <rect id="Rectangle_3_copy_13-8" data-name="Rectangle 3 copy 13" x="21" y="15" width="3" height="2"/>
  <rect id="Rectangle_3_copy_13-9" data-name="Rectangle 3 copy 13" x="24" y="15" width="3" height="2"/>
  <rect id="Rectangle_3_copy_13-10" data-name="Rectangle 3 copy 13" x="29" y="15" width="3" height="2"/>
  <rect id="Rectangle_3_copy_13-11" data-name="Rectangle 3 copy 13" x="33" y="15" width="3" height="2"/>
  <rect id="Rectangle_3_copy_13-12" data-name="Rectangle 3 copy 13" x="37" y="15" width="3" height="2"/>
  <rect id="Rectangle_3_copy_13-13" data-name="Rectangle 3 copy 13" x="38" y="8" width="2" height="2"/>
  <path id="Rectangle_1_copy" data-name="Rectangle 1 copy" class="cls-1" d="M3,1H42a2,2,0,0,1,2,2V17a2,2,0,0,1-2,2H3a2,2,0,0,1-2-2V3A2,2,0,0,1,3,1Z"/>
  <rect id="Rectangle_2_copy" data-name="Rectangle 2 copy" x="20" y="6" width="6" height="6"/>
</svg>
