<svg xmlns="http://www.w3.org/2000/svg" width="45" height="20" viewBox="0 0 45 20">
  <defs>
    <style>
      .cls-1 {
        fill: none;
        stroke: #000;
        stroke-width: 2px;
        fill-rule: evenodd;
      }
    </style>
  </defs>
  <rect id="Rectangle_3_copy_14" data-name="Rectangle 3 copy 14" x="36" y="9" width="2" height="2"/>
  <rect id="Rectangle_3_copy_14-2" data-name="Rectangle 3 copy 14" x="28" y="4" width="13" height="1"/>
  <rect id="Rectangle_3_copy_14-3" data-name="Rectangle 3 copy 14" x="13" y="9" width="3" height="2"/>
  <rect id="Rectangle_3_copy_14-4" data-name="Rectangle 3 copy 14" x="17" y="9" width="3" height="2"/>
  <rect id="Rectangle_3_copy_14-5" data-name="Rectangle 3 copy 14" x="21" y="9" width="3" height="2"/>
  <rect id="Rectangle_3_copy_14-6" data-name="Rectangle 3 copy 14" x="25" y="9" width="3" height="2"/>
  <rect id="Rectangle_3_copy_14-7" data-name="Rectangle 3 copy 14" x="29" y="9" width="3" height="2"/>
  <rect id="Rectangle_3_copy_14-8" data-name="Rectangle 3 copy 14" x="39" y="9" width="2" height="2"/>
  <path id="Rectangle_1_copy_2" data-name="Rectangle 1 copy 2" class="cls-1" d="M3,1H42a2,2,0,0,1,2,2V17a2,2,0,0,1-2,2H3a2,2,0,0,1-2-2V3A2,2,0,0,1,3,1Z"/>
  <rect id="Rectangle_2_copy_2" data-name="Rectangle 2 copy 2" x="4" y="7" width="6" height="6"/>
</svg>
