<?xml version="1.0" encoding="utf-8"?>
<!-- Generator: Adobe Illustrator 25.3.1, SVG Export Plug-In . SVG Version: 6.00 Build 0)  -->
<svg version="1.1" id="Capa_1" xmlns="http://www.w3.org/2000/svg" xmlns:xlink="http://www.w3.org/1999/xlink" x="0px" y="0px"
	 viewBox="0 0 740.3 278" style="enable-background:new 0 0 740.3 278;" xml:space="preserve">
<style type="text/css">
	.st0{fill:none;stroke:#000000;stroke-width:30;stroke-miterlimit:10;}
</style>
<rect x="14.6" y="16.5" class="st0" width="237.7" height="245"/>
<rect x="251" y="16.5" class="st0" width="237.7" height="245"/>
<rect x="488.6" y="16.5" class="st0" width="237.7" height="245"/>
<g>
	<g>
		<g>
			<path d="M400.2,148.3c-2.9-2.7-7.4-2.7-10.1,0L373.4,165l-31.1-31.1c-2.9-2.7-7.4-2.7-10.1,0l-50.5,50.5
				c-2.7,2.9-2.7,7.4,0.2,10.3c1.4,1.4,3.1,1.9,5.1,2.1h144.6c4.1,0,7.2-3.1,7.2-7.2c0-1.9-0.8-3.9-2.1-5.2L400.2,148.3z"/>
			<circle cx="380.6" cy="102.9" r="21.8"/>
		</g>
	</g>
</g>
<g>
	<g>
		<g>
			<path d="M648.5,148.3c-2.9-2.7-7.4-2.7-10.1,0L621.7,165l-31.1-31.1c-2.9-2.7-7.4-2.7-10.1,0L530,184.4
				c-2.7,2.9-2.7,7.4,0.2,10.3c1.4,1.4,3.1,1.9,5.1,2.1h144.6c4.1,0,7.2-3.1,7.2-7.2c0-1.9-0.8-3.9-2.1-5.2L648.5,148.3z"/>
			<circle cx="628.9" cy="102.9" r="21.8"/>
		</g>
	</g>
</g>
<g>
	<g>
		<g>
			<path d="M173.3,148.3c-2.9-2.7-7.4-2.7-10.1,0L146.5,165l-31.1-31.1c-2.9-2.7-7.4-2.7-10.1,0l-50.5,50.5
				c-2.7,2.9-2.7,7.4,0.2,10.3c1.4,1.4,3.1,1.9,5.1,2.1h144.6c4.1,0,7.2-3.1,7.2-7.2c0-1.9-0.8-3.9-2.1-5.2L173.3,148.3z"/>
			<circle cx="153.7" cy="102.9" r="21.8"/>
		</g>
	</g>
</g>
</svg>
