<?xml version="1.0" encoding="utf-8"?>
<!-- Generator: Adobe Illustrator 25.3.1, SVG Export Plug-In . SVG Version: 6.00 Build 0)  -->
<svg version="1.1" id="Layer_1" xmlns="http://www.w3.org/2000/svg" xmlns:xlink="http://www.w3.org/1999/xlink" x="0px" y="0px"
	 viewBox="0 0 125 90.9" style="enable-background:new 0 0 125 90.9;" xml:space="preserve">
<path d="M116.4,0H8.6C3.9,0,0,3.8,0,8.5v73.9c0,4.7,3.8,8.5,8.5,8.5h107.9c4.7,0,8.5-3.8,8.5-8.5V8.5C125,3.8,121.1,0,116.4,0z
	 M119.3,82.4c0,1.6-1.3,2.8-2.8,2.8H8.6c-1.6,0-2.8-1.3-2.8-2.8V8.5C5.7,7,7,5.7,8.6,5.7h107.9c1.6,0,2.8,1.3,2.8,2.8V82.4z"/>
<g>
	<path d="M78.7,49.1c-1.1-1.1-2.9-1.1-4,0l-6.5,6.5L56,43.5c-1.1-1.1-2.9-1.1-4,0L32.1,63.4c-1.1,1.1-1.1,2.9,0,4
		c0.5,0.5,1.2,0.8,1.9,0.8h56.8c1.6,0,2.8-1.3,2.9-2.8c0-0.8-0.3-1.5-0.8-2L78.7,49.1z"/>
	<circle cx="71" cy="31.2" r="8.5"/>
</g>
</svg>
