<?xml version="1.0" encoding="utf-8"?>
<!-- Generator: Adobe Illustrator 25.3.1, SVG Export Plug-In . SVG Version: 6.00 Build 0)  -->
<svg version="1.1" id="Layer_1" xmlns="http://www.w3.org/2000/svg" xmlns:xlink="http://www.w3.org/1999/xlink" x="0px" y="0px"
	 viewBox="0 0 296.4 108.1" style="enable-background:new 0 0 296.4 108.1;" xml:space="preserve">
<g>
	<path d="M143.5,10v88.1H10V10H143.5 M153.5,0H0v108.1h153.5V0L153.5,0z"/>
</g>
<g>
	<path d="M286.4,10v88.1H152.9V10H286.4 M296.4,0H142.9v108.1h153.5V0L296.4,0z"/>
</g>
<g>
	<path d="M238.8,58.4c-1.3-1.3-3.4-1.3-4.8,0l-7.8,7.8l-14.5-14.5c-1.3-1.3-3.4-1.3-4.8,0l-23.6,23.6c-1.3,1.3-1.3,3.5,0,4.8
		c0.6,0.6,1.4,1,2.3,1h67.5c1.9,0,3.4-1.5,3.4-3.4c0-0.9-0.4-1.8-1-2.4L238.8,58.4z"/>
	<circle cx="229.7" cy="37.2" r="10.1"/>
</g>
<g>
	<path d="M96,58.4c-1.3-1.3-3.4-1.3-4.8,0l-7.8,7.8L69,51.7c-1.3-1.3-3.4-1.3-4.8,0L40.6,75.3c-1.3,1.3-1.3,3.5,0,4.8
		c0.6,0.6,1.4,1,2.3,1h67.5c1.9,0,3.4-1.5,3.4-3.4c0-0.9-0.4-1.8-1-2.4L96,58.4z"/>
	<circle cx="86.8" cy="37.2" r="10.1"/>
</g>
</svg>
